<svg width="23" height="18" viewBox="0 0 23 18" fill="none" xmlns="http://www.w3.org/2000/svg">
<path d="M15.7788 9.00025C15.7788 11.66 13.8652 13.8127 11.501 13.8127C9.13674 13.8127 7.2232 11.66 7.2232 9.00025C7.2232 6.34048 9.13674 4.18774 11.501 4.18774C13.8652 4.18774 15.7788 6.34048 15.7788 9.00025ZM10.8899 7.62524V10.3752H10.5843C10.2482 10.3752 9.9732 10.6846 9.9732 11.0627C9.9732 11.4409 10.2482 11.7502 10.5843 11.7502H12.4176C12.7538 11.7502 13.0288 11.4409 13.0288 11.0627C13.0288 10.6846 12.7538 10.3752 12.4176 10.3752H12.1121V6.93774C12.1121 6.55962 11.8371 6.25024 11.501 6.25024H10.8899C10.5538 6.25024 10.2788 6.55962 10.2788 6.93774C10.2788 7.31587 10.5538 7.62524 10.8899 7.62524ZM0.500977 3.50024C0.500977 1.9813 1.59525 0.750244 2.94542 0.750244H20.0565C21.4048 0.750244 22.501 1.9813 22.501 3.50024V14.5002C22.501 16.017 21.4048 17.2502 20.0565 17.2502H2.94542C1.59525 17.2502 0.500977 16.017 0.500977 14.5002V3.50024ZM2.33431 5.56274V12.4377C3.68448 12.4377 4.77875 13.6709 4.77875 15.1877H18.2232C18.2232 13.6709 19.3194 12.4377 20.6676 12.4377V5.56274C19.3194 5.56274 18.2232 4.32954 18.2232 2.81274H4.77875C4.77875 4.32954 3.68448 5.56274 2.33431 5.56274Z" fill="white"/>
</svg>
