<svg width="15" height="14" viewBox="0 0 15 14" fill="none" xmlns="http://www.w3.org/2000/svg">
<path fill-rule="evenodd" clip-rule="evenodd" d="M11.0059 5.06135C11.2475 5.06135 11.4434 5.25722 11.4434 5.49885L11.4434 10.5063C11.4434 10.6224 11.3973 10.7337 11.3152 10.8157C11.2332 10.8977 11.1219 10.9438 11.0059 10.9438L5.99836 10.9438C5.75674 10.9438 5.56087 10.748 5.56086 10.5063C5.56086 10.2647 5.75674 10.0688 5.99836 10.0688L10.5684 10.0688L10.5684 5.49885C10.5684 5.25722 10.7642 5.06135 11.0059 5.06135Z" fill="#EE201C"/>
<path fill-rule="evenodd" clip-rule="evenodd" d="M3.68454 3.18485C3.85539 3.01399 4.1324 3.01399 4.30326 3.18485L11.2453 10.1269C11.4161 10.2977 11.4161 10.5747 11.2453 10.7456C11.0744 10.9164 10.7974 10.9164 10.6266 10.7456L3.68454 3.80357C3.51368 3.63271 3.51368 3.3557 3.68454 3.18485Z" fill="#EE201C"/>
</svg>
