<svg width="15" height="14" viewBox="0 0 15 14" fill="none" xmlns="http://www.w3.org/2000/svg">
<path fill-rule="evenodd" clip-rule="evenodd" d="M5.56037 3.49396C5.56037 3.25233 5.75624 3.05646 5.99787 3.05646L11.0054 3.05646C11.1214 3.05646 11.2327 3.10255 11.3147 3.1846C11.3968 3.26665 11.4429 3.37793 11.4429 3.49396L11.4429 8.50145C11.4429 8.74308 11.247 8.93895 11.0054 8.93895C10.7637 8.93895 10.5679 8.74308 10.5679 8.50145L10.5679 3.93146L5.99787 3.93146C5.75624 3.93146 5.56037 3.73558 5.56037 3.49396Z" fill="#1A932E"/>
<path fill-rule="evenodd" clip-rule="evenodd" d="M3.68387 10.8155C3.51302 10.6446 3.51302 10.3676 3.68387 10.1967L10.6259 3.25472C10.7967 3.08387 11.0738 3.08387 11.2446 3.25472C11.4155 3.42558 11.4155 3.70259 11.2446 3.87344L4.30259 10.8155C4.13173 10.9863 3.85473 10.9863 3.68387 10.8155Z" fill="#1A932E"/>
</svg>
