<svg width="23" height="22" viewBox="0 0 23 22" fill="none" xmlns="http://www.w3.org/2000/svg">
<path d="M18.375 3.4375H4.625C3.48591 3.4375 2.5625 4.36091 2.5625 5.5V17.875C2.5625 19.0141 3.48591 19.9375 4.625 19.9375H18.375C19.5141 19.9375 20.4375 19.0141 20.4375 17.875V5.5C20.4375 4.36091 19.5141 3.4375 18.375 3.4375Z" stroke="white" stroke-width="1.5" stroke-linejoin="round"/>
<path d="M13.2188 11C13.7883 11 14.25 10.5383 14.25 9.96875C14.25 9.39921 13.7883 8.9375 13.2188 8.9375C12.6492 8.9375 12.1875 9.39921 12.1875 9.96875C12.1875 10.5383 12.6492 11 13.2188 11Z" fill="white"/>
<path d="M16.6562 11C17.2258 11 17.6875 10.5383 17.6875 9.96875C17.6875 9.39921 17.2258 8.9375 16.6562 8.9375C16.0867 8.9375 15.625 9.39921 15.625 9.96875C15.625 10.5383 16.0867 11 16.6562 11Z" fill="white"/>
<path d="M13.2188 14.4375C13.7883 14.4375 14.25 13.9758 14.25 13.4062C14.25 12.8367 13.7883 12.375 13.2188 12.375C12.6492 12.375 12.1875 12.8367 12.1875 13.4062C12.1875 13.9758 12.6492 14.4375 13.2188 14.4375Z" fill="white"/>
<path d="M16.6562 14.4375C17.2258 14.4375 17.6875 13.9758 17.6875 13.4062C17.6875 12.8367 17.2258 12.375 16.6562 12.375C16.0867 12.375 15.625 12.8367 15.625 13.4062C15.625 13.9758 16.0867 14.4375 16.6562 14.4375Z" fill="white"/>
<path d="M6.34375 14.4375C6.91329 14.4375 7.375 13.9758 7.375 13.4062C7.375 12.8367 6.91329 12.375 6.34375 12.375C5.77421 12.375 5.3125 12.8367 5.3125 13.4062C5.3125 13.9758 5.77421 14.4375 6.34375 14.4375Z" fill="white"/>
<path d="M9.78125 14.4375C10.3508 14.4375 10.8125 13.9758 10.8125 13.4062C10.8125 12.8367 10.3508 12.375 9.78125 12.375C9.21171 12.375 8.75 12.8367 8.75 13.4062C8.75 13.9758 9.21171 14.4375 9.78125 14.4375Z" fill="white"/>
<path d="M6.34375 17.875C6.91329 17.875 7.375 17.4133 7.375 16.8438C7.375 16.2742 6.91329 15.8125 6.34375 15.8125C5.77421 15.8125 5.3125 16.2742 5.3125 16.8438C5.3125 17.4133 5.77421 17.875 6.34375 17.875Z" fill="white"/>
<path d="M9.78125 17.875C10.3508 17.875 10.8125 17.4133 10.8125 16.8438C10.8125 16.2742 10.3508 15.8125 9.78125 15.8125C9.21171 15.8125 8.75 16.2742 8.75 16.8438C8.75 17.4133 9.21171 17.875 9.78125 17.875Z" fill="white"/>
<path d="M13.2188 17.875C13.7883 17.875 14.25 17.4133 14.25 16.8438C14.25 16.2742 13.7883 15.8125 13.2188 15.8125C12.6492 15.8125 12.1875 16.2742 12.1875 16.8438C12.1875 17.4133 12.6492 17.875 13.2188 17.875Z" fill="white"/>
<path d="M6 2.0625V3.4375M17 2.0625V3.4375" stroke="white" stroke-width="1.5" stroke-linecap="round" stroke-linejoin="round"/>
<path d="M20.4375 6.875H2.5625" stroke="white" stroke-width="1.5" stroke-linejoin="round"/>
</svg>
