<svg width="18" height="18" viewBox="0 0 18 18" fill="none" xmlns="http://www.w3.org/2000/svg">
<path d="M0.875 1.5H2.03C2.455 1.5 2.82583 1.78583 2.93583 2.19583L3.255 3.39333M3.255 3.39333C7.8972 3.26324 12.5349 3.77929 17.035 4.92667C16.3483 6.97167 15.5325 8.95833 14.5983 10.875H5.25M3.255 3.39333L5.25 10.875M5.25 10.875C4.58696 10.875 3.95107 11.1384 3.48223 11.6072C3.01339 12.0761 2.75 12.712 2.75 13.375H15.875M4 15.875C4 16.0408 3.93415 16.1997 3.81694 16.3169C3.69973 16.4342 3.54076 16.5 3.375 16.5C3.20924 16.5 3.05027 16.4342 2.93306 16.3169C2.81585 16.1997 2.75 16.0408 2.75 15.875C2.75 15.7092 2.81585 15.5503 2.93306 15.4331C3.05027 15.3158 3.20924 15.25 3.375 15.25C3.54076 15.25 3.69973 15.3158 3.81694 15.4331C3.93415 15.5503 4 15.7092 4 15.875ZM14.625 15.875C14.625 16.0408 14.5592 16.1997 14.4419 16.3169C14.3247 16.4342 14.1658 16.5 14 16.5C13.8342 16.5 13.6753 16.4342 13.5581 16.3169C13.4408 16.1997 13.375 16.0408 13.375 15.875C13.375 15.7092 13.4408 15.5503 13.5581 15.4331C13.6753 15.3158 13.8342 15.25 14 15.25C14.1658 15.25 14.3247 15.3158 14.4419 15.4331C14.5592 15.5503 14.625 15.7092 14.625 15.875Z" stroke="#3A46D1" stroke-width="1.5" stroke-linecap="round" stroke-linejoin="round"/>
</svg>
