<svg width="24" height="24" viewBox="0 0 24 24" fill="none" xmlns="http://www.w3.org/2000/svg">
<path d="M6.5 11L12 2L17.5 11H6.5ZM17.5 22C16.25 22 15.1877 21.5627 14.313 20.688C13.4383 19.8133 13.0007 18.7507 13 17.5C12.9993 16.2493 13.437 15.187 14.313 14.313C15.189 13.439 16.2513 13.0013 17.5 13C18.7487 12.9987 19.8113 13.4363 20.688 14.313C21.5647 15.1897 22.002 16.252 22 17.5C21.998 18.748 21.5607 19.8107 20.688 20.688C19.8153 21.5653 18.7527 22.0027 17.5 22ZM3 21.5V13.5H11V21.5H3Z" fill="#484848"/>
</svg>
