<svg width="141" height="49" viewBox="0 0 141 49" fill="none" xmlns="http://www.w3.org/2000/svg">
<path d="M0 0H123C132.941 0 141 8.05888 141 18V49H18C8.05887 49 0 40.9411 0 31V0Z" fill="#E80D31"/>
<rect width="5" height="22" transform="translate(21 13.5)" fill="#3A46D1"/>
<path d="M46.0283 33L42.7676 26.7861C42.5488 26.2939 42.4189 25.9556 42.3779 25.771H42.3267V33H37.897V18.2959H42.3267V25.2891H42.3779C42.5078 24.9199 42.6548 24.5781 42.8188 24.2637L45.7515 18.2959H51.0015L46.8281 25.3096L51.4014 33H46.0283ZM56.6206 19.6699C56.6206 20.2852 56.395 20.7842 55.9438 21.167C55.4995 21.5498 54.9116 21.7412 54.1802 21.7412C53.4692 21.7412 52.8848 21.543 52.4268 21.1465C51.9756 20.75 51.75 20.2578 51.75 19.6699C51.75 19.0684 51.9688 18.583 52.4062 18.2139C52.8506 17.8379 53.4419 17.6499 54.1802 17.6499C54.9116 17.6499 55.4995 17.8379 55.9438 18.2139C56.395 18.583 56.6206 19.0684 56.6206 19.6699ZM51.9961 33V22.5H56.3643V33H51.9961ZM72.0938 33V26.9502C72.0938 26.4443 72.0015 26.0684 71.8169 25.8223C71.6392 25.5693 71.3452 25.4429 70.9351 25.4429C70.5317 25.4429 70.2173 25.5967 69.9917 25.9043C69.7661 26.2051 69.6533 26.6255 69.6533 27.1655V33H65.2852V27.0527C65.2852 25.9795 64.9194 25.4429 64.188 25.4429C63.7437 25.4429 63.4087 25.6001 63.1831 25.9146C62.9575 26.2222 62.8447 26.6665 62.8447 27.2476V33H58.4766V22.5H62.8447V24.1611H62.8857C63.0498 23.8672 63.3096 23.5698 63.665 23.269C64.0273 22.9614 64.4341 22.7153 64.8853 22.5308C65.3364 22.3394 65.8252 22.2437 66.3516 22.2437C67.0967 22.2437 67.7222 22.3906 68.228 22.6846C68.7407 22.9785 69.168 23.4434 69.5098 24.0791C69.8789 23.4912 70.3711 23.04 70.9863 22.7256C71.6016 22.4043 72.2852 22.2437 73.0371 22.2437C74.1377 22.2437 74.9819 22.6025 75.5698 23.3203C76.1577 24.0381 76.4517 25.0737 76.4517 26.4272V33H72.0938ZM92.0479 33V26.9502C92.0479 26.4443 91.9556 26.0684 91.771 25.8223C91.5933 25.5693 91.2993 25.4429 90.8892 25.4429C90.4858 25.4429 90.1714 25.5967 89.9458 25.9043C89.7202 26.2051 89.6074 26.6255 89.6074 27.1655V33H85.2393V27.0527C85.2393 25.9795 84.8735 25.4429 84.1421 25.4429C83.6978 25.4429 83.3628 25.6001 83.1372 25.9146C82.9116 26.2222 82.7988 26.6665 82.7988 27.2476V33H78.4307V22.5H82.7988V24.1611H82.8398C83.0039 23.8672 83.2637 23.5698 83.6191 23.269C83.9814 22.9614 84.3882 22.7153 84.8394 22.5308C85.2905 22.3394 85.7793 22.2437 86.3057 22.2437C87.0508 22.2437 87.6763 22.3906 88.1821 22.6846C88.6948 22.9785 89.1221 23.4434 89.4639 24.0791C89.833 23.4912 90.3252 23.04 90.9404 22.7256C91.5557 22.4043 92.2393 22.2437 92.9912 22.2437C94.0918 22.2437 94.936 22.6025 95.5239 23.3203C96.1118 24.0381 96.4058 25.0737 96.4058 26.4272V33H92.0479ZM100.425 37.9321C100.015 37.9321 99.5742 37.8945 99.1025 37.8193C98.6309 37.751 98.2104 37.6484 97.8413 37.5117V34.2202C98.0122 34.3501 98.2651 34.4697 98.6001 34.5791C98.9419 34.6885 99.2632 34.7432 99.564 34.7432C100.377 34.7432 100.917 34.4219 101.184 33.7793L101.522 32.959L97.1338 22.5H101.963L103.235 27.5654C103.481 28.5088 103.614 29.1445 103.635 29.4727H103.676C103.696 29.3223 103.724 29.1548 103.758 28.9702C103.799 28.7856 104.332 26.6289 105.357 22.5H109.603L105.737 33.2974C105.156 34.9517 104.435 36.1377 103.573 36.8555C102.719 37.5732 101.669 37.9321 100.425 37.9321ZM118.975 29.5137C118.975 30.7031 118.52 31.626 117.611 32.2822C116.708 32.9316 115.447 33.2563 113.827 33.2563C113.355 33.2563 112.771 33.2085 112.074 33.1128C111.383 33.0171 110.819 32.9009 110.382 32.7642V29.6982C111.674 30.2725 112.754 30.5596 113.622 30.5596C114.477 30.5596 114.904 30.3374 114.904 29.8931C114.904 29.7085 114.805 29.5581 114.606 29.4419C114.408 29.3188 113.889 29.1172 113.048 28.8369C112.118 28.543 111.441 28.1533 111.018 27.668C110.594 27.1826 110.382 26.5503 110.382 25.771C110.382 24.6841 110.812 23.8262 111.674 23.1973C112.542 22.5615 113.759 22.2437 115.324 22.2437C116.24 22.2437 117.211 22.377 118.236 22.6436V25.5864C117.806 25.4019 117.334 25.248 116.821 25.125C116.309 25.002 115.878 24.9404 115.529 24.9404C115.242 24.9404 115.013 24.9883 114.842 25.084C114.671 25.1797 114.586 25.313 114.586 25.4839C114.586 25.6821 114.678 25.8428 114.863 25.9658C115.047 26.0889 115.417 26.2358 115.97 26.4067C117.043 26.7212 117.812 27.1245 118.277 27.6167C118.742 28.1089 118.975 28.7412 118.975 29.5137Z" fill="white"/>
</svg>
