<svg width="23" height="22" viewBox="0 0 23 22" fill="none" xmlns="http://www.w3.org/2000/svg">
<path d="M19.7105 -0.000152588H3.21045C1.6958 -0.000152588 0.460449 1.2352 0.460449 2.71118V15.0475C0.460449 16.5622 1.6958 17.7588 3.21045 17.7588H7.33545V21.3673C7.33545 21.79 7.80897 22.0355 8.15701 21.7841L13.5238 17.7588H19.7113C21.226 17.7588 22.4613 16.5235 22.4613 15.0475V2.71118C22.4605 1.2352 21.2616 -0.000152588 19.7105 -0.000152588ZM20.4366 15.1248C20.4366 15.5008 20.1251 15.8123 19.7491 15.8123H12.8741L9.43662 18.3905V15.8123H3.24912C2.87315 15.8123 2.56162 15.5008 2.56162 15.1248V2.74985C2.56162 2.37387 2.87315 2.06235 3.24912 2.06235H19.7491C20.1251 2.06235 20.4366 2.37387 20.4366 2.74985V15.1248Z" fill="white"/>
</svg>
