<svg width="24" height="24" viewBox="0 0 24 24" fill="none" xmlns="http://www.w3.org/2000/svg">
<path d="M4.00005 20V7.1L2.05005 2.85L3.85005 2L6.20005 7.05H17.8L20.15 2L21.9501 2.85L20 7.1V20H4.00005ZM10 13H14C14.2834 13 14.521 12.904 14.713 12.712C14.905 12.52 15.0007 12.2827 15 12C14.9994 11.7173 14.9034 11.48 14.712 11.288C14.5207 11.096 14.2834 11 14 11H10C9.71672 11 9.47938 11.096 9.28805 11.288C9.09672 11.48 9.00072 11.7173 9.00005 12C8.99938 12.2827 9.09538 12.5203 9.28805 12.713C9.48072 12.9057 9.71805 13.0013 10 13Z" fill="#484848"/>
</svg>
